# xmcd
#
# Track frame offsets:
#	150
#	12281
#	26794
#	40471
#	52891
#	64508
#	79952
#	90622
#	103000
#	113032
#	126636
#	139025
#	149711
#	164224
#
# Disc length: 2340 seconds
#
# Revision: 0
# Processed by: cddbd v1.5.2PL0 Copyright (c) Steve Scherf et al.
# Submitted via: audiograbber 1.83.01
#
DISCID=ce09220e
DTITLE=Carlos Gardel - A 70 años CD2
DYEAR=1900
DGENRE=tango
TTITLE0=Lejana Tierra Mia
TTITLE1=Cuesta Abajo
TTITLE2=Volvio una Noche
TTITLE3=Golondrina
TTITLE4=Arrabal Amargo
TTITLE5=Guitarra Mia
TTITLE6=Ausencia
TTITLE7=Medianoche
TTITLE8=La Canción de Buenos Aires
TTITLE9=Sueño de Juventud
TTITLE10=Sus Ojos se Cerraron
TTITLE11=Vida Amarga
TTITLE12=Al Pie de la Santa Cruz
TTITLE13=La Hija de la Japonesita
EXTD=
EXTT0=
EXTT1=
EXTT2=
EXTT3=
EXTT4=
EXTT5=
EXTT6=
EXTT7=
EXTT8=
EXTT9=
EXTT10=
EXTT11=
EXTT12=
EXTT13=
PLAYORDER=
